<svg width="24" height="24" viewBox="0 0 24 24" fill="none" xmlns="http://www.w3.org/2000/svg">
<path d="M3.01942 16.9029L5.83922 2.80388C5.93271 2.33646 6.34312 2 6.8198 2H17.1802C17.6569 2 18.0673 2.33646 18.1608 2.80388L20.9806 16.9029C20.9935 16.9675 21 17.0332 21 17.099V19C21 20.6569 19.6569 22 18 22H6C4.34315 22 3 20.6569 3 19V17.099C3 17.0332 3.0065 16.9675 3.01942 16.9029Z" fill="black"/>
<path d="M19 18H5V19C5 19.5523 5.44772 20 6 20H18C18.5523 20 19 19.5523 19 19V18Z" fill="white"/>
<circle cx="15" cy="13" r="1" fill="white"/>
</svg>
