<svg width="24" height="24" viewBox="0 0 24 24" fill="none" xmlns="http://www.w3.org/2000/svg">
<path d="M3.81124 10.2329L7.81453 9.42159C8.09178 9.3654 8.33225 9.19442 8.47638 8.95101L10.125 6.16667L11.1395 4.45325C11.5268 3.79924 12.4732 3.79924 12.8605 4.45325L15.5236 8.95101C15.6677 9.19442 15.9082 9.3654 16.1855 9.42159L20.1888 10.2329C20.9675 10.3907 21.26 11.3499 20.7019 11.9154L17.3718 15.2899C17.1392 15.5256 17.0384 15.8611 17.1025 16.186L17.8527 19.987C18.0141 20.8046 17.1631 21.4493 16.4196 21.0726L12.452 19.0623C12.1678 18.9184 11.8322 18.9184 11.548 19.0623L7.58035 21.0726C6.83689 21.4493 5.98593 20.8046 6.14731 19.987L6.89751 16.186C6.96162 15.8611 6.86078 15.5256 6.62821 15.2899L3.2981 11.9154C2.74001 11.3499 3.03253 10.3907 3.81124 10.2329Z" fill="black"/>
</svg>
