<svg width="24" height="24" viewBox="0 0 24 24" fill="none" xmlns="http://www.w3.org/2000/svg">
<path d="M2 6C2 3.79086 3.79086 2 6 2H18C20.2091 2 22 3.79086 22 6V18C22 20.2091 20.2091 22 18 22H6C3.79086 22 2 20.2091 2 18V6Z" fill="black"/>
<path d="M16.7813 5.18804C15.1563 3.60399 12.5216 3.60399 10.8966 5.18804L7.95432 8.05624C6.32933 9.6403 6.32933 12.2086 7.95432 13.7926C9.57932 15.3767 12.214 15.3767 13.8389 13.7926L14.4554 13.1917C14.2774 12.8897 14.064 12.578 13.8389 12.3586C13.6138 12.1392 13.2941 11.9312 12.9843 11.7576L12.3678 12.3585C11.5553 13.1506 10.238 13.1506 9.42548 12.3585C8.61298 11.5665 8.61298 10.2824 9.42548 9.49033L12.3678 6.62214C13.1803 5.83011 14.4976 5.83011 15.3101 6.62214C15.9135 7.21036 16.0688 8.07001 15.7759 8.79792C16.1201 8.98072 16.5027 9.21896 16.7812 9.49041C17.0096 9.71309 17.2026 9.97034 17.3601 10.2192C18.3754 8.65174 18.1825 6.55398 16.7813 5.18804Z" fill="white"/>
<path d="M16.0457 10.2074C14.4207 8.62332 11.786 8.62332 10.1611 10.2074L9.54659 10.8064C9.72642 11.112 9.94037 11.4263 10.1611 11.6415C10.4165 11.8905 10.7163 12.0963 10.9989 12.2588L11.6322 11.6415C12.4447 10.8494 13.762 10.8494 14.5745 11.6415C15.387 12.4335 15.387 13.7176 14.5745 14.5097L11.6322 17.3779C10.8197 18.1699 9.5024 18.1699 8.6899 17.3779C8.09048 16.7935 7.93328 15.9414 8.21831 15.2166C7.89179 15.0425 7.52367 14.8069 7.21874 14.5097C6.99031 14.287 6.79735 14.0297 6.63986 13.7809C5.62457 15.3483 5.81753 17.446 7.21874 18.812C8.84374 20.396 11.4784 20.396 13.1034 18.812L16.0457 15.9438C17.6707 14.3597 17.6707 11.7914 16.0457 10.2074Z" fill="white"/>
</svg>
