<svg width="24" height="24" viewBox="0 0 24 24" fill="none" xmlns="http://www.w3.org/2000/svg">
<path fill-rule="evenodd" clip-rule="evenodd" d="M12.614 3.21065C12.2529 2.92978 11.7472 2.92978 11.3861 3.21065L2.38611 10.2106C1.95016 10.5497 1.87162 11.178 2.21069 11.6139C2.54976 12.0499 3.17804 12.1284 3.61399 11.7894L4 11.4891V20C4 21.1046 4.89543 22 6 22H18C19.1046 22 20 21.1046 20 20V11.489L20.3861 11.7894C20.8221 12.1284 21.4503 12.0499 21.7894 11.6139C22.1285 11.178 22.0499 10.5497 21.614 10.2106L12.614 3.21065Z" fill="black"/>
<path d="M10 16C10 15.4477 10.4477 15 11 15H13C13.5523 15 14 15.4477 14 16V20H10V16Z" fill="white"/>
</svg>
