<svg width="24" height="24" viewBox="0 0 24 24" fill="none" xmlns="http://www.w3.org/2000/svg">
<circle cx="12" cy="12" r="10" fill="black"/>
<path d="M15.5148 13.2294L16.703 14.4201C17.099 14.817 17.099 15.6107 16.7029 16.0077C15.9367 16.7756 14.9304 17 14.5246 17C12.9405 17 11.9507 16.8013 9.57445 14.4199C7.19824 12.0385 7 10.6496 7 9.45887C7 8.66512 7.19812 8.06968 7.99019 7.27588C8.38628 6.87893 9.17107 6.92457 9.56717 7.32148L10.7624 8.46658C11.1585 8.86345 11.1584 9.65728 10.7624 10.0542L9.97032 10.848C10.1683 12.2371 11.718 13.8211 13.1386 14.0232L13.9307 13.2294C14.3267 12.8325 15.1188 12.8325 15.5148 13.2294Z" fill="white"/>
</svg>
