<svg width="24" height="24" viewBox="0 0 24 24" fill="none" xmlns="http://www.w3.org/2000/svg">
<path d="M11.375 2C10.6846 2 10.125 2.55964 10.125 3.25L9.97494 4.30042C9.84058 5.24094 8.74756 5.69368 7.9875 5.12364L7.13864 4.48699C6.65049 3.99884 5.85903 3.99884 5.37087 4.48699L4.48699 5.37088C3.99884 5.85903 3.99884 6.65049 4.48699 7.13864L5.12364 7.9875C5.69368 8.74756 5.24093 9.84058 4.30041 9.97494L3.25 10.125C2.55964 10.125 2 10.6846 2 11.375V12.625C2 13.3154 2.55964 13.875 3.25 13.875L4.30042 14.0251C5.24094 14.1594 5.69368 15.2524 5.12364 16.0125L4.48699 16.8614C3.99884 17.3495 3.99884 18.141 4.48699 18.6291L5.37087 19.513C5.85903 20.0012 6.65049 20.0012 7.13864 19.513L7.9875 18.8764C8.74756 18.3063 9.84058 18.7591 9.97494 19.6996L10.125 20.75C10.125 21.4404 10.6846 22 11.375 22H12.625C13.3154 22 13.875 21.4404 13.875 20.75L14.0251 19.6996C14.1594 18.7591 15.2524 18.3063 16.0125 18.8764L16.8614 19.513C17.3495 20.0012 18.141 20.0012 18.6291 19.513L19.513 18.6291C20.0012 18.141 20.0012 17.3495 19.513 16.8614L18.8764 16.0125C18.3063 15.2524 18.7591 14.1594 19.6996 14.0251L20.75 13.875C21.4404 13.875 22 13.3154 22 12.625V11.375C22 10.6846 21.4404 10.125 20.75 10.125L19.6996 9.97494C18.7591 9.84058 18.3063 8.74756 18.8764 7.9875L19.513 7.13864C20.0012 6.65049 20.0012 5.85903 19.513 5.37088L18.6291 4.48699C18.141 3.99884 17.3495 3.99884 16.8614 4.48699L16.0125 5.12364C15.2524 5.69368 14.1594 5.24094 14.0251 4.30042L13.875 3.25C13.875 2.55964 13.3154 2 12.625 2H11.375Z" fill="black"/>
<circle cx="12" cy="12" r="4" fill="white"/>
<circle cx="12" cy="12" r="2" fill="black"/>
</svg>
