<svg width="24" height="24" viewBox="0 0 24 24" fill="none" xmlns="http://www.w3.org/2000/svg">
<path d="M17 5H5C3.89543 5 3 5.89543 3 7V18C3 19.1046 3.89543 20 5 20H17C18.1046 20 19 19.1046 19 18V17.1569C19 17.0702 18.9298 17 18.8431 17H15.5C13.0147 17 11 14.9853 11 12.5C11 10.0147 13.0147 8 15.5 8H18.8431C18.9298 8 19 7.92977 19 7.84314V7C19 5.89543 18.1046 5 17 5Z" fill="black" stroke="black" stroke-width="2" stroke-linecap="round" stroke-linejoin="round"/>
<path d="M14 12.5C14 11.6716 14.6716 11 15.5 11H19.5C20.3284 11 21 11.6716 21 12.5C21 13.3284 20.3284 14 19.5 14H15.5C14.6716 14 14 13.3284 14 12.5Z" fill="black" stroke="black" stroke-width="2" stroke-linecap="round" stroke-linejoin="round"/>
</svg>
